<?xml version="1.0" encoding="UTF-8" standalone="no"?>
<!-- Created with Inkscape (http://www.inkscape.org/) -->

<svg
   width="47.416965mm"
   height="43.094189mm"
   viewBox="0 0 47.416965 43.094189"
   version="1.1"
   id="svg1"
   xml:space="preserve"
   xmlns:inkscape="http://www.inkscape.org/namespaces/inkscape"
   xmlns:sodipodi="http://sodipodi.sourceforge.net/DTD/sodipodi-0.dtd"
   xmlns="http://www.w3.org/2000/svg"
   xmlns:svg="http://www.w3.org/2000/svg"><sodipodi:namedview
     id="namedview1"
     pagecolor="#ffffff"
     bordercolor="#000000"
     borderopacity="0.25"
     inkscape:showpageshadow="2"
     inkscape:pageopacity="0.0"
     inkscape:pagecheckerboard="0"
     inkscape:deskcolor="#d1d1d1"
     inkscape:document-units="mm" /><defs
     id="defs1" /><g
     inkscape:label="Layer 1"
     inkscape:groupmode="layer"
     id="layer1"
     transform="translate(-60.79286,-170.03543)"><path
       style="fill:#006262;fill-opacity:1"
       d="m 67.131949,189.51644 c -6.420253,-11.3157 -6.235099,-10.22588 -6.312386,-10.41461 -0.07729,-0.18872 0.01901,-0.44414 0.21399,-0.56761 0.465793,-0.29493 4.286256,-0.36348 5.060236,-0.0693 0.457173,0.17382 1.986251,1.39022 6.985882,10.20128 5.506679,9.70465 5.726947,21.52595 12.968604,20.36671 0.49103,-0.0786 -3.404443,0.67976 -3.147342,0.75681 -4.499195,6.65888 -13.876567,-16.86111 -15.768984,-20.27328 z m 12.686198,21.00954 c -2.125772,-2.87405 14.638284,1.03338 15.119378,-7.19122 0.08265,-1.41295 -0.68393,-2.82885 -1.87462,-3.87429 -0.4887,-0.42909 -2.61314,-1.66215 -4.72097,-2.74014 -4.451605,-2.27664 -5.975294,-3.53954 -7.033423,-5.82961 -0.580724,-1.25683 -0.705357,-1.88022 -0.710952,-3.556 -0.0094,-2.81937 0.591351,-4.4455 2.258149,-6.11231 1.952336,-1.95233 3.563646,-2.5103 7.255816,-2.51258 3.11848,-0.002 4.92857,0.44687 6.59865,1.63608 0.71637,0.5101 0.76735,0.65395 0.76735,2.16512 0,0.9012 -0.12359,1.69509 -0.27882,1.79103 -0.15334,0.0948 -1.28438,-0.30555 -2.51341,-0.88962 -2.53335,-1.20391 -4.39899,-1.51695 -6.25513,-1.04957 -1.61693,0.40715 -2.59948,1.15343 -3.16865,2.40672 -0.918721,2.02297 -0.3852,4.09577 1.48917,5.78568 0.5701,0.51399 2.74173,1.79824 4.82583,2.85388 4.2405,2.1479 5.69643,3.27547 6.79857,5.2653 0.70715,1.2767 0.75344,1.53193 0.75344,4.15427 0,2.48022 -0.0741,2.9509 -0.65968,4.191 -2.049439,4.34006 -16.644405,6.21879 -18.650698,3.50626 z"
       id="path1"
       sodipodi:nodetypes="ssscsscssssssscsssssssssssss" /><path
       d="m 96.50478,211.73073 v -1.39917 l 1.519397,-0.0158 c 1.890057,-0.0196 2.998663,-0.47509 3.367283,-1.38338 0.20509,-0.50534 0.28508,-2.60324 0.28808,-7.55552 0.005,-7.88044 0.01,-7.90404 1.99952,-9.49137 0.63488,-0.50646 1.15431,-0.94975 1.15431,-0.98508 0,-0.0354 -0.56298,-0.54625 -1.25107,-1.13541 -1.88371,-1.61284 -1.90028,-1.68828 -1.90028,-8.64906 0,-3.87606 -0.0905,-6.26406 -0.2543,-6.71101 -0.3588,-0.97897 -1.39878,-1.43126 -3.291016,-1.43126 h -1.631969 l 1.8e-5,-1.46912 2.7e-5,-1.46913 1.9696,0.007 c 3.32039,0.0112 4.84303,0.80108 5.68704,2.94996 0.40564,1.03283 0.44685,1.72216 0.44685,7.47522 v 6.33747 l 1.80078,1.87392 c 0.99043,1.03066 1.80078,2.02819 1.80078,2.21673 0,0.18854 -0.80625,1.14438 -1.7917,2.12409 l -1.7917,1.78126 -0.014,7.13578 c -0.0124,6.33814 -0.0609,7.26398 -0.43304,8.28279 -0.7808,2.13733 -2.25951,2.90651 -5.592446,2.90902 l -2.082148,9.5e-4 z"
       style="fill:#006262;fill-opacity:1;stroke-width:0.988107"
       id="path1-9" /></g></svg>
