<?xml version="1.0" encoding="UTF-8" standalone="no"?>
<!-- Created with Inkscape (http://www.inkscape.org/) -->

<svg
   width="83.598618mm"
   height="93.806053mm"
   viewBox="0 0 83.598618 93.806053"
   version="1.1"
   id="svg1"
   xml:space="preserve"
   xmlns="http://www.w3.org/2000/svg"
   xmlns:svg="http://www.w3.org/2000/svg"><defs
     id="defs1" /><g
     id="layer1"
     transform="translate(-37.783345,-193.10884)"><path
       style="fill:#000000"
       d="m 96.716211,264.82966 c -8.606583,-12.15245 -15.694397,-22.15528 -15.750693,-22.2285 -0.0563,-0.0732 -0.909595,0.10165 -1.896219,0.3886 -3.529936,1.02667 -5.989012,1.34744 -10.284312,1.34154 -4.103777,-0.006 -5.852368,-0.20894 -9.214174,-1.07128 -10.628379,-2.72629 -18.536105,-9.82589 -21.110937,-18.95353 -0.711166,-2.52104 -0.888959,-6.6769 -0.402663,-9.41208 1.656753,-9.31843 9.472188,-17.24201 20.150059,-20.4289 3.905444,-1.16561 5.39513,-1.35668 10.577715,-1.35668 4.096513,0 4.968071,0.0518 6.706152,0.39871 4.154626,0.82918 7.79894,2.15273 10.948424,3.97627 6.598718,3.82063 10.875778,9.12337 12.774968,15.83851 0.60365,2.13441 0.75609,6.89965 0.2974,9.29685 -0.97318,5.08602 -3.4672,9.40747 -7.668234,13.28698 -1.367415,1.26275 -1.506155,1.45516 -1.315,1.82367 0.117536,0.22658 7.104254,10.13671 15.526033,22.02249 8.42179,11.88579 15.31901,21.76423 15.32716,21.9521 0.0109,0.25132 -1.12124,0.98356 -4.28421,2.77096 -2.36445,1.33616 -4.39668,2.43394 -4.51607,2.43952 -0.11938,0.006 -7.25881,-9.93277 -15.865399,-22.08523 z M 70.934492,234.58099 c 2.845333,-0.26435 4.934745,-0.79691 7.472091,-1.90453 2.752103,-1.20137 5.159749,-2.8711 6.749017,-4.68053 8.031599,-9.14419 2.607621,-21.50875 -10.843313,-24.71854 -1.840069,-0.43909 -2.399184,-0.48851 -5.5273,-0.48851 -3.106732,0 -3.693349,0.0511 -5.467075,0.47579 -10.363482,2.48165 -16.436177,10.59848 -14.155203,18.91998 1.941751,7.08395 9.753102,12.16175 19.315206,12.55593 0.281482,0.0116 1.386942,-0.0602 2.456577,-0.15959 z"
       id="path1" /></g></svg>
